<svg xmlns="http://www.w3.org/2000/svg" viewBox="0 0 88.92 84.07"><defs><style>.cls-1{fill:#492727;}.cls-1,.cls-2,.cls-3{fill-rule:evenodd;}.cls-2{fill:#fff;}.cls-3{fill:#ffa31d;}</style></defs><g id="Слой_2" data-name="Слой 2"><g id="Layer_1" data-name="Layer 1"><path class="cls-1" d="M1.49,71.92c4.5,3.57,10.68,6,16,9.08,1.08.63,4.27,3.06,5.48,3.07a11.39,11.39,0,0,0,2.53-1.21c4.5-2.26,8.13-4.69,12.28-6.93,2.78-1.51,4.74-3.12,7.73-4a113.62,113.62,0,0,0,10.14,5.87c1.64.82,3.63,1.57,5.48,2.67,1,.59,3.9,3.06,5.2,3.07.62,0,2-1,2.93-1.47,1.17-.57,2.21-1,2.94-1.46,5.66-3.24,11.65-6.39,16.28-10.28-.14-3.89.58-7.61.4-11.47-.08-1.66-.5-3.44-.67-5.34s.16-4.18-.26-5.74c-.47-1.71-3.49-3-4.94-3.87a115.32,115.32,0,0,0-11.34-6.4c-1.7-.81-5.57-1.55-6-2.94s.19-3.72.27-5.33a68.81,68.81,0,0,0-.53-10.68c-.15-1.79.12-4-.27-5.47s-2.61-2.39-4.4-3.47c-3.54-2.11-6.61-4-10-5.74-1.88-.94-3.65-1.58-5.61-2.4-1-.42-1.9-1.26-2.93-1.47a6.61,6.61,0,0,0-1.87.8c-.39.23-1.12.94-1.6,1.21C34.84,4.17,29,6.71,24.84,9.61c-1.29.91-3.53,2.44-3.87,3.34-.42,1.12-.33,3.12-.4,4.8-.24,6,.27,13.15,0,18-5.08,3.08-10.69,5.31-15.74,8.68C3.46,45.35.9,46.91.43,48.17c-.58,1.52-.41,4.09-.41,6C0,60.65,1.09,66.21,1.49,71.92Z"/><path class="cls-2" d="M42.32,2.14a117.51,117.51,0,0,1,21,12.14c-.13,6.72-.11,14.3.8,20.42-2.44.91-4.53,2.45-6.8,3.73-4.58,2.59-9.35,4.81-13.61,7.74C37,43,31,39.13,24.31,35.9a109.34,109.34,0,0,1-1.2-18.28,15,15,0,0,1,.13-3.74c.42-1.07,3-2.38,4.41-3.2C32.61,7.71,37.89,5,42.32,2.14ZM62.07,16.42c0-.65.45-1.31.27-1.87-.34-1.06-3.48-2.47-4.41-3.07a53.93,53.93,0,0,0-4.8-2.8A82.26,82.26,0,0,0,42.86,3.87c-1-.36-2.43.93-3.21,1.34-3.93,2.08-7.28,4.06-10.94,6.4-.9.58-3.62,2.24-3.87,2.8-.51,1.21-.15,3.61-.26,5.21A64.61,64.61,0,0,0,25.38,35c2.3.78,3.6,1.92,5.6,3.07,2.62,1.51,5.48,2.59,8.14,4.27,1.36.86,2.68,2.3,4,2.27S46.9,42.72,48.19,42c5.14-2.72,10.26-5.16,14.41-8.4C62.83,27.91,61.81,21.34,62.07,16.42Z"/><path class="cls-3" d="M60.6,15.75c.26,5.39,0,11.28.4,16.81-5.8,3.32-11.9,6.34-17.08,10.28Q35.38,38.22,27,33.5c-.45-4.94-.29-10.69-.4-15.22,0-.87-.42-2-.14-2.8s2.82-1.79,4-2.53c2.89-1.82,5.16-3.35,8-5.07C40,6.93,41.81,6,43,5.34,48.67,9,54.85,12.16,60.6,15.75Zm-16-6.54c-2.7-.51.44,2.71,0,0Zm1.73,1.2a1,1,0,0,0,1.74-.8A1,1,0,0,0,46.32,10.41Zm-6-.8c-2.73,1.21-5.55,2.05-7.74,4.8a17.26,17.26,0,0,0-3.2,12,28.32,28.32,0,0,0,.93,3.47c1.17,4.19,3.24,6.2,7.48,7.34-1.13-1.91-3-2.31-4.54-4-3.8-4.29-2.78-13.61.4-17.75a15.3,15.3,0,0,1,3.87-3.2c1.4-.94,3.09-1.38,4.4-2.67C41.33,9,40.6,9.49,40.32,9.61ZM53.8,14c1.25.13,1.42,1.34,2.53,1.61C56.48,14.28,54.53,12.34,53.8,14Zm5.33,4.81a.62.62,0,0,1-.13.4c-.23,6.29-1.15,11.23-4.4,14.41-2.3,2.25-5.46,3-8.41,4.8a11.91,11.91,0,0,0,9.88-4.13c2-2.37,3.46-6.49,3.73-10.55.12-1.71.24-3.77-.4-4.93Z"/><path class="cls-3" d="M65.14,36.83A117.51,117.51,0,0,1,86.09,49a132.43,132.43,0,0,0,.8,20.42c-3.53,1.66-6.58,4.07-10,6s-7.07,3.36-10.41,5.47c-6.69-3.18-12.74-7-19.34-10.27-1.16-5.33-.88-11.4-1.2-18.15-.07-1.27-.4-2.75-.14-3.6.34-1.1,3.07-2.5,4.4-3.34,1.86-1.15,3.54-1.84,4.94-2.66C58.93,40.61,61.87,38.73,65.14,36.83Zm-6,4.27c-2.84,1.67-5.44,3.29-8.13,5.2-1.12.8-3.26,2.38-3.47,2.94-.41,1.09-.05,3.42,0,4.94,0,1.91.17,3.8.26,5.07.19,2.56,0,7.64.94,9.74.7,1.57,4.45,3.16,6.13,4.13,2.34,1.35,4.49,3.16,6.41,4,.3.13,1,.22,1.47.4,1.41.59,2.49,2.14,3.6,2.13,1.35,0,3.72-1.86,4.94-2.53,5.2-2.9,9.62-5.29,13.87-8.81-.05-6.71,0-13.5-.66-19.61C78.26,45,72.3,41,65.27,38c-.08,0-.16,0-.13.14C62.46,38.58,61.29,39.83,59.13,41.1Z"/><path class="cls-2" d="M42.72,49.51c-.16,5.52,0,12.08.27,17.21,0,1,.45,2,.13,2.8-.47,1.24-5.19,3.45-6.4,4.14-4.61,2.6-9.35,4.87-13.74,7.74-6.56-3.28-12.68-7-19.22-10.28-1.16-5.46-.88-11.22-1.2-18-.06-1.27-.42-2.79-.13-3.74S5.7,46.73,6.83,46c1.88-1.14,3.55-1.86,4.94-2.67,3.42-2,6.48-4.11,9.74-5.6,1.34-.62,4.53,1.5,6.14,2.4A132.62,132.62,0,0,1,42.72,49.51Zm-15.34-8c-1.27-.7-4.52-3-5.61-2.27C16.11,43,9.12,46,3.76,49.64c-.56,6.58.18,13.42.67,19.75,4,3,8.66,5.37,13.21,8,1.19.7,3.56,2.31,4.8,2.27.69,0,1.6-.76,2.54-1.2a124.48,124.48,0,0,0,17.08-10,141.38,141.38,0,0,0-.67-18.54C37,47.33,32,44.07,27.38,41.5Z"/><path class="cls-3" d="M83.15,49.91c0,4.19,0,8.48.14,12.67,0,1.06.38,3.23.13,4s-2.74,1.79-3.74,2.4c-1.5.91-2.74,1.6-3.87,2.27-3.71,2.22-6.07,4.44-10,6-4.4-3.19-10.2-6.2-15.08-9.47-1.2-5.21-1.24-11.57-1.2-18a159.83,159.83,0,0,1,16-10.14C71.62,42.85,76.88,46.88,83.15,49.91ZM60.34,43.77a14.58,14.58,0,0,0-6,4.4c-2.2,2.83-4.1,9.61-3.07,13.61,1.57,6,7.39,10.53,14.28,10.94,3,.19,5.12.17,6.14-2-3.54-.38-6.6.09-9.48-.53a11.42,11.42,0,0,1-5.47-3.34c-1.89-1.93-3.72-4-4-6.8C52,53.16,55.21,47.1,60.2,44.84c1.91-.86,4.12-1,6.27-1.87C64.71,41.9,62.2,43,60.34,43.77ZM73,46.57a6.06,6.06,0,0,0,3.2,2.27C76.23,47.2,74.11,45.79,73,46.57Zm6.14,5.34a1.06,1.06,0,0,0,.53-1.2C78.7,49.06,77.06,51.91,79.15,51.91Zm-22.42,2.4a1.42,1.42,0,0,0,1.2-.4V53C57,52,55.68,53.6,56.73,54.31Zm24-.53c0,.17-.17.18-.13.4a3.67,3.67,0,0,0-.27,1.2c-.29,3.48-.53,6.52-1.73,8.94A33.32,33.32,0,0,1,75.28,69c-.29.4-1,.86-.8,1.47C78.61,69,81.32,64.38,81.68,59c.13-1.86.22-4.3-.66-5.2Z"/><path class="cls-3" d="M40.19,51.24c-.45,5.15.19,11,0,15.88C34.52,70.75,28.05,74.28,23,78.06c-5.58-3.14-11.1-6.34-16.82-9.34-.24-5.75-.53-11.81-.8-17.88,2-1.71,4.75-2.63,7.07-4,.13.46-.43.81-.66,1.07C8.35,51.63,5.16,60.05,8.7,66.59c2.2,4.06,5,6.17,10.94,6.8,1.84.2,4.52.72,5.47-1.33-1.36-.4-2.44.56-3.6.53a24.86,24.86,0,0,1-4.41-1.2A11.53,11.53,0,0,1,8.7,61.25a16.28,16.28,0,0,1,4.53-13.48,13.87,13.87,0,0,1,10.15-4c-.44-1.3-2.69-.93-4-.67a34.47,34.47,0,0,1,3.47-2C28.62,44.48,34.37,47.9,40.19,51.24ZM25.78,46a1.25,1.25,0,0,0,1.33-.14v-.66C26.72,44.35,25,45,25.78,46ZM35.92,65.65c3.08-6.16.86-15.84-4-18.68h-.4c-.13,1.42,1.3,3.13,1.87,4.81A32.89,32.89,0,0,1,35,56.45c.67,3.49.25,7.57-1.06,9.6-1.19,1.84-3.25,2.71-4.94,4.67C32.2,71.27,34.8,67.89,35.92,65.65Z"/></g></g></svg>